<svg xmlns="http://www.w3.org/2000/svg" width="22" height="22" viewBox="0 0 22 22">
  <path id="Trazado_106" data-name="Trazado 106" d="M3.438,16.923H.688a.63.63,0,0,0-.486.248.954.954,0,0,0-.2.6v3.385a.954.954,0,0,0,.2.6A.63.63,0,0,0,.688,22h2.75a.63.63,0,0,0,.486-.248.954.954,0,0,0,.2-.6V17.769a.954.954,0,0,0-.2-.6A.63.63,0,0,0,3.438,16.923ZM3.438,0H.688A.63.63,0,0,0,.2.248a.954.954,0,0,0-.2.6V4.231a.954.954,0,0,0,.2.6.63.63,0,0,0,.486.248h2.75a.63.63,0,0,0,.486-.248.954.954,0,0,0,.2-.6V.846a.954.954,0,0,0-.2-.6A.63.63,0,0,0,3.438,0Zm0,8.462H.688A.63.63,0,0,0,.2,8.709a.954.954,0,0,0-.2.6v3.385a.954.954,0,0,0,.2.6.63.63,0,0,0,.486.248h2.75a.63.63,0,0,0,.486-.248.954.954,0,0,0,.2-.6V9.308a.954.954,0,0,0-.2-.6A.63.63,0,0,0,3.438,8.462Zm17.875,9.308H7.563a.63.63,0,0,0-.486.248.954.954,0,0,0-.2.6v1.692a.954.954,0,0,0,.2.6.63.63,0,0,0,.486.248h13.75a.63.63,0,0,0,.486-.248.954.954,0,0,0,.2-.6V18.615a.954.954,0,0,0-.2-.6A.63.63,0,0,0,21.313,17.769Zm0-16.923H7.563a.63.63,0,0,0-.486.248.954.954,0,0,0-.2.6V3.385a.954.954,0,0,0,.2.6.63.63,0,0,0,.486.248h13.75a.63.63,0,0,0,.486-.248.954.954,0,0,0,.2-.6V1.692a.954.954,0,0,0-.2-.6A.63.63,0,0,0,21.313.846Zm0,8.462H7.563a.63.63,0,0,0-.486.248.954.954,0,0,0-.2.6v1.692a.954.954,0,0,0,.2.6.63.63,0,0,0,.486.248h13.75a.63.63,0,0,0,.486-.248.954.954,0,0,0,.2-.6V10.154a.954.954,0,0,0-.2-.6A.63.63,0,0,0,21.313,9.308Z" fill="#fff"/>
</svg>
