<svg xmlns="http://www.w3.org/2000/svg" width="26" height="26" viewBox="0 0 26 26">
  <path id="Trazado_112" data-name="Trazado 112" d="M287,15a13,13,0,1,0,13,13A13,13,0,0,0,287,15Zm6.374,16.413a.628.628,0,0,1,0,.891L291.3,34.374a.629.629,0,0,1-.891,0L287,30.935l-3.413,3.439a.629.629,0,0,1-.891,0l-2.07-2.076a.628.628,0,0,1,0-.891L284.065,28l-3.439-3.413a.628.628,0,0,1,0-.891l2.076-2.076a.629.629,0,0,1,.891,0L287,25.065l3.413-3.439a.629.629,0,0,1,.891,0l2.075,2.076a.628.628,0,0,1,0,.891L289.935,28Z" transform="translate(-274 -15)" fill="#fff"/>
</svg>
